<svg width="15" height="15" viewBox="0 0 15 15" fill="none" xmlns="http://www.w3.org/2000/svg">
    <path id="Shape" fill-rule="evenodd" clip-rule="evenodd" d="M2.65782 6.17761C2.65782 2.77268 5.42758 0 8.82891 0C12.2302 0 15 2.77268 15 6.17761C15 9.58253 12.2302 12.3552 8.82891 12.3552C7.35123 12.3552 5.99648 11.8364 4.93341 10.9653L0.83969 15L0 14.0428L4.04632 10.0772C3.1761 9.01303 2.65782 7.65685 2.65782 6.17761ZM13.7658 6.17761C13.7658 3.44112 11.5625 1.23552 8.82891 1.23552C6.09531 1.23552 3.89204 3.44112 3.89204 6.17761C3.89204 8.91409 6.09531 11.1197 8.82891 11.1197C11.5625 11.1197 13.7658 8.91409 13.7658 6.17761Z" fill="#828282"/>
</svg>
